<mxfile host="app.diagrams.net" modified="2023-07-28T17:24:55.928Z" agent="Mozilla/5.0 (Windows NT 10.0; Win64; x64) AppleWebKit/537.36 (KHTML, like Gecko) Chrome/115.0.0.0 Safari/537.36" etag="3U8bjsm8osKjJXoXgyZZ" version="21.6.5" type="device">
  <diagram id="C5RBs43oDa-KdzZeNtuy" name="Page-1">
    <mxGraphModel dx="1877" dy="574" grid="1" gridSize="10" guides="1" tooltips="1" connect="1" arrows="1" fold="1" page="1" pageScale="1" pageWidth="827" pageHeight="1169" math="0" shadow="0">
      <root>
        <mxCell id="WIyWlLk6GJQsqaUBKTNV-0" />
        <mxCell id="WIyWlLk6GJQsqaUBKTNV-1" parent="WIyWlLk6GJQsqaUBKTNV-0" />
        <mxCell id="D_m6g35PgsfcEyeFwmXf-0" value="Start" style="strokeWidth=2;html=1;shape=mxgraph.flowchart.start_1;whiteSpace=wrap;" parent="WIyWlLk6GJQsqaUBKTNV-1" vertex="1">
          <mxGeometry x="-466" y="550" width="100" height="40" as="geometry" />
        </mxCell>
        <mxCell id="_VKKLm1d0s1w-XBs0YKe-0" value="&lt;font style=&quot;font-size: 20px;&quot;&gt;T&lt;/font&gt;" style="ellipse;whiteSpace=wrap;html=1;aspect=fixed;" parent="WIyWlLk6GJQsqaUBKTNV-1" vertex="1">
          <mxGeometry x="-360" y="40" width="40" height="40" as="geometry" />
        </mxCell>
        <mxCell id="_VKKLm1d0s1w-XBs0YKe-10" value="&lt;font style=&quot;font-size: 20px;&quot;&gt;G&lt;/font&gt;" style="ellipse;whiteSpace=wrap;html=1;aspect=fixed;" parent="WIyWlLk6GJQsqaUBKTNV-1" vertex="1">
          <mxGeometry x="-440" y="120" width="40" height="40" as="geometry" />
        </mxCell>
        <mxCell id="_VKKLm1d0s1w-XBs0YKe-11" value="&lt;font style=&quot;font-size: 20px;&quot;&gt;V&lt;/font&gt;" style="ellipse;whiteSpace=wrap;html=1;aspect=fixed;" parent="WIyWlLk6GJQsqaUBKTNV-1" vertex="1">
          <mxGeometry x="-280" y="120" width="40" height="40" as="geometry" />
        </mxCell>
        <mxCell id="_VKKLm1d0s1w-XBs0YKe-12" value="&lt;font style=&quot;font-size: 20px;&quot;&gt;B&lt;/font&gt;" style="ellipse;whiteSpace=wrap;html=1;aspect=fixed;" parent="WIyWlLk6GJQsqaUBKTNV-1" vertex="1">
          <mxGeometry x="-520" y="200" width="40" height="40" as="geometry" />
        </mxCell>
        <mxCell id="_VKKLm1d0s1w-XBs0YKe-13" value="&lt;font style=&quot;font-size: 20px;&quot;&gt;J&lt;/font&gt;" style="ellipse;whiteSpace=wrap;html=1;aspect=fixed;" parent="WIyWlLk6GJQsqaUBKTNV-1" vertex="1">
          <mxGeometry x="-360" y="200" width="40" height="40" as="geometry" />
        </mxCell>
        <mxCell id="_VKKLm1d0s1w-XBs0YKe-14" value="&lt;font style=&quot;font-size: 20px;&quot;&gt;W&lt;/font&gt;" style="ellipse;whiteSpace=wrap;html=1;aspect=fixed;" parent="WIyWlLk6GJQsqaUBKTNV-1" vertex="1">
          <mxGeometry x="-200" y="200" width="40" height="40" as="geometry" />
        </mxCell>
        <mxCell id="_VKKLm1d0s1w-XBs0YKe-15" value="&lt;font style=&quot;font-size: 20px;&quot;&gt;A&lt;/font&gt;" style="ellipse;whiteSpace=wrap;html=1;aspect=fixed;" parent="WIyWlLk6GJQsqaUBKTNV-1" vertex="1">
          <mxGeometry x="-600" y="280" width="40" height="40" as="geometry" />
        </mxCell>
        <mxCell id="_VKKLm1d0s1w-XBs0YKe-16" value="&lt;font style=&quot;font-size: 20px;&quot;&gt;E&lt;/font&gt;" style="ellipse;whiteSpace=wrap;html=1;aspect=fixed;" parent="WIyWlLk6GJQsqaUBKTNV-1" vertex="1">
          <mxGeometry x="-480" y="280" width="40" height="40" as="geometry" />
        </mxCell>
        <mxCell id="_VKKLm1d0s1w-XBs0YKe-17" value="&lt;font style=&quot;font-size: 20px;&quot;&gt;C&lt;/font&gt;" style="ellipse;whiteSpace=wrap;html=1;aspect=fixed;" parent="WIyWlLk6GJQsqaUBKTNV-1" vertex="1">
          <mxGeometry x="-520" y="360" width="40" height="40" as="geometry" />
        </mxCell>
        <mxCell id="_VKKLm1d0s1w-XBs0YKe-18" value="&lt;font style=&quot;font-size: 20px;&quot;&gt;F&lt;/font&gt;" style="ellipse;whiteSpace=wrap;html=1;aspect=fixed;" parent="WIyWlLk6GJQsqaUBKTNV-1" vertex="1">
          <mxGeometry x="-440" y="360" width="40" height="40" as="geometry" />
        </mxCell>
        <mxCell id="_VKKLm1d0s1w-XBs0YKe-19" value="&lt;font style=&quot;font-size: 20px;&quot;&gt;L&lt;/font&gt;" style="ellipse;whiteSpace=wrap;html=1;aspect=fixed;" parent="WIyWlLk6GJQsqaUBKTNV-1" vertex="1">
          <mxGeometry x="-280" y="280" width="40" height="40" as="geometry" />
        </mxCell>
        <mxCell id="_VKKLm1d0s1w-XBs0YKe-20" value="&lt;font style=&quot;font-size: 20px;&quot;&gt;K&lt;/font&gt;" style="ellipse;whiteSpace=wrap;html=1;aspect=fixed;" parent="WIyWlLk6GJQsqaUBKTNV-1" vertex="1">
          <mxGeometry x="-320" y="360" width="40" height="40" as="geometry" />
        </mxCell>
        <mxCell id="_VKKLm1d0s1w-XBs0YKe-21" value="&lt;font style=&quot;font-size: 20px;&quot;&gt;M&lt;/font&gt;" style="ellipse;whiteSpace=wrap;html=1;aspect=fixed;" parent="WIyWlLk6GJQsqaUBKTNV-1" vertex="1">
          <mxGeometry x="-240" y="360" width="40" height="40" as="geometry" />
        </mxCell>
        <mxCell id="_VKKLm1d0s1w-XBs0YKe-22" value="&lt;font style=&quot;font-size: 20px;&quot;&gt;R&lt;/font&gt;" style="ellipse;whiteSpace=wrap;html=1;aspect=fixed;" parent="WIyWlLk6GJQsqaUBKTNV-1" vertex="1">
          <mxGeometry x="-160" y="440" width="40" height="40" as="geometry" />
        </mxCell>
        <mxCell id="_VKKLm1d0s1w-XBs0YKe-23" value="&lt;font style=&quot;font-size: 20px;&quot;&gt;P&lt;/font&gt;" style="ellipse;whiteSpace=wrap;html=1;aspect=fixed;" parent="WIyWlLk6GJQsqaUBKTNV-1" vertex="1">
          <mxGeometry x="-80" y="520" width="40" height="40" as="geometry" />
        </mxCell>
        <mxCell id="_VKKLm1d0s1w-XBs0YKe-24" value="" style="endArrow=none;html=1;rounded=0;" parent="WIyWlLk6GJQsqaUBKTNV-1" source="_VKKLm1d0s1w-XBs0YKe-10" target="_VKKLm1d0s1w-XBs0YKe-0" edge="1">
          <mxGeometry width="50" height="50" relative="1" as="geometry">
            <mxPoint x="-400" y="160" as="sourcePoint" />
            <mxPoint x="-350" y="110" as="targetPoint" />
          </mxGeometry>
        </mxCell>
        <mxCell id="_VKKLm1d0s1w-XBs0YKe-25" value="" style="endArrow=none;html=1;rounded=0;entryX=1;entryY=1;entryDx=0;entryDy=0;exitX=0;exitY=0;exitDx=0;exitDy=0;" parent="WIyWlLk6GJQsqaUBKTNV-1" source="_VKKLm1d0s1w-XBs0YKe-13" target="_VKKLm1d0s1w-XBs0YKe-10" edge="1">
          <mxGeometry width="50" height="50" relative="1" as="geometry">
            <mxPoint x="-440" y="290" as="sourcePoint" />
            <mxPoint x="-390" y="240" as="targetPoint" />
          </mxGeometry>
        </mxCell>
        <mxCell id="_VKKLm1d0s1w-XBs0YKe-26" value="" style="endArrow=none;html=1;rounded=0;entryX=0;entryY=1;entryDx=0;entryDy=0;exitX=1;exitY=0;exitDx=0;exitDy=0;" parent="WIyWlLk6GJQsqaUBKTNV-1" source="_VKKLm1d0s1w-XBs0YKe-12" target="_VKKLm1d0s1w-XBs0YKe-10" edge="1">
          <mxGeometry width="50" height="50" relative="1" as="geometry">
            <mxPoint x="-590" y="310" as="sourcePoint" />
            <mxPoint x="-540" y="260" as="targetPoint" />
          </mxGeometry>
        </mxCell>
        <mxCell id="_VKKLm1d0s1w-XBs0YKe-27" value="" style="endArrow=none;html=1;rounded=0;exitX=1;exitY=0;exitDx=0;exitDy=0;entryX=0;entryY=1;entryDx=0;entryDy=0;" parent="WIyWlLk6GJQsqaUBKTNV-1" source="_VKKLm1d0s1w-XBs0YKe-15" target="_VKKLm1d0s1w-XBs0YKe-12" edge="1">
          <mxGeometry width="50" height="50" relative="1" as="geometry">
            <mxPoint x="-270" y="320" as="sourcePoint" />
            <mxPoint x="-220" y="270" as="targetPoint" />
          </mxGeometry>
        </mxCell>
        <mxCell id="_VKKLm1d0s1w-XBs0YKe-28" value="" style="endArrow=none;html=1;rounded=0;" parent="WIyWlLk6GJQsqaUBKTNV-1" source="_VKKLm1d0s1w-XBs0YKe-12" target="_VKKLm1d0s1w-XBs0YKe-16" edge="1">
          <mxGeometry width="50" height="50" relative="1" as="geometry">
            <mxPoint x="-440" y="290" as="sourcePoint" />
            <mxPoint x="-390" y="240" as="targetPoint" />
          </mxGeometry>
        </mxCell>
        <mxCell id="_VKKLm1d0s1w-XBs0YKe-29" value="" style="endArrow=none;html=1;rounded=0;" parent="WIyWlLk6GJQsqaUBKTNV-1" source="_VKKLm1d0s1w-XBs0YKe-17" target="_VKKLm1d0s1w-XBs0YKe-16" edge="1">
          <mxGeometry width="50" height="50" relative="1" as="geometry">
            <mxPoint x="-640" y="410" as="sourcePoint" />
            <mxPoint x="-590" y="360" as="targetPoint" />
          </mxGeometry>
        </mxCell>
        <mxCell id="_VKKLm1d0s1w-XBs0YKe-30" value="" style="endArrow=none;html=1;rounded=0;" parent="WIyWlLk6GJQsqaUBKTNV-1" source="_VKKLm1d0s1w-XBs0YKe-16" target="_VKKLm1d0s1w-XBs0YKe-18" edge="1">
          <mxGeometry width="50" height="50" relative="1" as="geometry">
            <mxPoint x="-410" y="330" as="sourcePoint" />
            <mxPoint x="-400" y="330" as="targetPoint" />
          </mxGeometry>
        </mxCell>
        <mxCell id="_VKKLm1d0s1w-XBs0YKe-31" value="" style="endArrow=none;html=1;rounded=0;exitX=1;exitY=1;exitDx=0;exitDy=0;" parent="WIyWlLk6GJQsqaUBKTNV-1" source="_VKKLm1d0s1w-XBs0YKe-13" target="_VKKLm1d0s1w-XBs0YKe-19" edge="1">
          <mxGeometry width="50" height="50" relative="1" as="geometry">
            <mxPoint x="-360" y="290" as="sourcePoint" />
            <mxPoint x="-310" y="240" as="targetPoint" />
          </mxGeometry>
        </mxCell>
        <mxCell id="_VKKLm1d0s1w-XBs0YKe-32" value="" style="endArrow=none;html=1;rounded=0;" parent="WIyWlLk6GJQsqaUBKTNV-1" source="_VKKLm1d0s1w-XBs0YKe-20" target="_VKKLm1d0s1w-XBs0YKe-19" edge="1">
          <mxGeometry width="50" height="50" relative="1" as="geometry">
            <mxPoint x="-190" y="330" as="sourcePoint" />
            <mxPoint x="-140" y="280" as="targetPoint" />
          </mxGeometry>
        </mxCell>
        <mxCell id="_VKKLm1d0s1w-XBs0YKe-33" value="" style="endArrow=none;html=1;rounded=0;" parent="WIyWlLk6GJQsqaUBKTNV-1" source="_VKKLm1d0s1w-XBs0YKe-19" target="_VKKLm1d0s1w-XBs0YKe-21" edge="1">
          <mxGeometry width="50" height="50" relative="1" as="geometry">
            <mxPoint x="-180" y="320" as="sourcePoint" />
            <mxPoint x="-130" y="270" as="targetPoint" />
          </mxGeometry>
        </mxCell>
        <mxCell id="_VKKLm1d0s1w-XBs0YKe-34" value="" style="endArrow=none;html=1;rounded=0;exitX=1;exitY=1;exitDx=0;exitDy=0;entryX=0;entryY=0;entryDx=0;entryDy=0;" parent="WIyWlLk6GJQsqaUBKTNV-1" source="_VKKLm1d0s1w-XBs0YKe-21" target="_VKKLm1d0s1w-XBs0YKe-22" edge="1">
          <mxGeometry width="50" height="50" relative="1" as="geometry">
            <mxPoint x="-120" y="400" as="sourcePoint" />
            <mxPoint x="-70" y="350" as="targetPoint" />
          </mxGeometry>
        </mxCell>
        <mxCell id="_VKKLm1d0s1w-XBs0YKe-35" value="" style="endArrow=none;html=1;rounded=0;exitX=1;exitY=1;exitDx=0;exitDy=0;entryX=0;entryY=0;entryDx=0;entryDy=0;" parent="WIyWlLk6GJQsqaUBKTNV-1" source="_VKKLm1d0s1w-XBs0YKe-22" target="_VKKLm1d0s1w-XBs0YKe-23" edge="1">
          <mxGeometry width="50" height="50" relative="1" as="geometry">
            <mxPoint x="-60" y="410" as="sourcePoint" />
            <mxPoint x="-10" y="360" as="targetPoint" />
          </mxGeometry>
        </mxCell>
        <mxCell id="_VKKLm1d0s1w-XBs0YKe-36" value="" style="endArrow=none;html=1;rounded=0;exitX=1;exitY=1;exitDx=0;exitDy=0;entryX=0;entryY=0;entryDx=0;entryDy=0;" parent="WIyWlLk6GJQsqaUBKTNV-1" source="_VKKLm1d0s1w-XBs0YKe-0" target="_VKKLm1d0s1w-XBs0YKe-11" edge="1">
          <mxGeometry width="50" height="50" relative="1" as="geometry">
            <mxPoint x="-280" y="110" as="sourcePoint" />
            <mxPoint x="-230" y="60" as="targetPoint" />
          </mxGeometry>
        </mxCell>
        <mxCell id="_VKKLm1d0s1w-XBs0YKe-37" value="" style="endArrow=none;html=1;rounded=0;exitX=1;exitY=1;exitDx=0;exitDy=0;entryX=0;entryY=0;entryDx=0;entryDy=0;" parent="WIyWlLk6GJQsqaUBKTNV-1" source="_VKKLm1d0s1w-XBs0YKe-11" target="_VKKLm1d0s1w-XBs0YKe-14" edge="1">
          <mxGeometry width="50" height="50" relative="1" as="geometry">
            <mxPoint x="-90" y="110" as="sourcePoint" />
            <mxPoint x="-40" y="60" as="targetPoint" />
          </mxGeometry>
        </mxCell>
        <mxCell id="_VKKLm1d0s1w-XBs0YKe-38" value="i = 0; 10; 1" style="shape=hexagon;perimeter=hexagonPerimeter2;whiteSpace=wrap;html=1;fixedSize=1;" parent="WIyWlLk6GJQsqaUBKTNV-1" vertex="1">
          <mxGeometry x="-500.5" y="710" width="170" height="40" as="geometry" />
        </mxCell>
        <mxCell id="_VKKLm1d0s1w-XBs0YKe-39" value="" style="endArrow=classic;html=1;rounded=0;entryX=0.5;entryY=0;entryDx=0;entryDy=0;" parent="WIyWlLk6GJQsqaUBKTNV-1" source="D_m6g35PgsfcEyeFwmXf-0" target="_VKKLm1d0s1w-XBs0YKe-54" edge="1">
          <mxGeometry width="50" height="50" relative="1" as="geometry">
            <mxPoint x="-450" y="750" as="sourcePoint" />
            <mxPoint x="-415" y="630" as="targetPoint" />
          </mxGeometry>
        </mxCell>
        <mxCell id="_VKKLm1d0s1w-XBs0YKe-40" value="" style="endArrow=classic;html=1;rounded=0;exitX=0.5;exitY=1;exitDx=0;exitDy=0;entryX=0.5;entryY=0;entryDx=0;entryDy=0;" parent="WIyWlLk6GJQsqaUBKTNV-1" source="_VKKLm1d0s1w-XBs0YKe-38" target="_VKKLm1d0s1w-XBs0YKe-41" edge="1">
          <mxGeometry width="50" height="50" relative="1" as="geometry">
            <mxPoint x="-420" y="760" as="sourcePoint" />
            <mxPoint x="-417" y="710" as="targetPoint" />
          </mxGeometry>
        </mxCell>
        <mxCell id="_VKKLm1d0s1w-XBs0YKe-41" value="bTree.insert(bArr[i]);" style="rounded=1;whiteSpace=wrap;html=1;absoluteArcSize=1;arcSize=14;strokeWidth=2;fillColor=#ffe6cc;strokeColor=#d79b00;" parent="WIyWlLk6GJQsqaUBKTNV-1" vertex="1">
          <mxGeometry x="-479" y="790" width="127" height="40" as="geometry" />
        </mxCell>
        <mxCell id="_VKKLm1d0s1w-XBs0YKe-42" value="" style="endArrow=classic;html=1;rounded=0;exitX=0;exitY=0.5;exitDx=0;exitDy=0;entryX=0;entryY=0.5;entryDx=0;entryDy=0;" parent="WIyWlLk6GJQsqaUBKTNV-1" source="_VKKLm1d0s1w-XBs0YKe-41" target="_VKKLm1d0s1w-XBs0YKe-38" edge="1">
          <mxGeometry width="50" height="50" relative="1" as="geometry">
            <mxPoint x="-610" y="700" as="sourcePoint" />
            <mxPoint x="-560" y="650" as="targetPoint" />
            <Array as="points">
              <mxPoint x="-520" y="810" />
              <mxPoint x="-520" y="730" />
            </Array>
          </mxGeometry>
        </mxCell>
        <mxCell id="_VKKLm1d0s1w-XBs0YKe-43" value="" style="endArrow=classic;html=1;rounded=0;exitX=1;exitY=0.5;exitDx=0;exitDy=0;entryX=0.5;entryY=0;entryDx=0;entryDy=0;" parent="WIyWlLk6GJQsqaUBKTNV-1" source="_VKKLm1d0s1w-XBs0YKe-38" target="_VKKLm1d0s1w-XBs0YKe-44" edge="1">
          <mxGeometry width="50" height="50" relative="1" as="geometry">
            <mxPoint x="-330" y="650" as="sourcePoint" />
            <mxPoint x="-420" y="800" as="targetPoint" />
            <Array as="points">
              <mxPoint x="-310" y="730" />
              <mxPoint x="-310" y="860" />
              <mxPoint x="-418" y="860" />
            </Array>
          </mxGeometry>
        </mxCell>
        <mxCell id="_VKKLm1d0s1w-XBs0YKe-44" value="preOrderTraversal" style="rounded=1;whiteSpace=wrap;html=1;absoluteArcSize=1;arcSize=14;strokeWidth=2;fillColor=#d5e8d4;strokeColor=#82b366;" parent="WIyWlLk6GJQsqaUBKTNV-1" vertex="1">
          <mxGeometry x="-483.5" y="890" width="130" height="40" as="geometry" />
        </mxCell>
        <mxCell id="_VKKLm1d0s1w-XBs0YKe-45" value="" style="endArrow=classic;html=1;rounded=0;exitX=0.5;exitY=1;exitDx=0;exitDy=0;" parent="WIyWlLk6GJQsqaUBKTNV-1" source="_VKKLm1d0s1w-XBs0YKe-44" edge="1">
          <mxGeometry width="50" height="50" relative="1" as="geometry">
            <mxPoint x="-401.5" y="1030" as="sourcePoint" />
            <mxPoint x="-418.5" y="960" as="targetPoint" />
          </mxGeometry>
        </mxCell>
        <mxCell id="_VKKLm1d0s1w-XBs0YKe-47" value="breadthFirstTraversal" style="rounded=1;whiteSpace=wrap;html=1;absoluteArcSize=1;arcSize=14;strokeWidth=2;fillColor=#dae8fc;strokeColor=#6c8ebf;" parent="WIyWlLk6GJQsqaUBKTNV-1" vertex="1">
          <mxGeometry x="-483.5" y="960" width="130" height="40" as="geometry" />
        </mxCell>
        <mxCell id="_VKKLm1d0s1w-XBs0YKe-48" value="" style="endArrow=classic;html=1;rounded=0;exitX=0.5;exitY=1;exitDx=0;exitDy=0;" parent="WIyWlLk6GJQsqaUBKTNV-1" source="_VKKLm1d0s1w-XBs0YKe-47" edge="1">
          <mxGeometry width="50" height="50" relative="1" as="geometry">
            <mxPoint x="-411.5" y="1070" as="sourcePoint" />
            <mxPoint x="-418.5" y="1030" as="targetPoint" />
          </mxGeometry>
        </mxCell>
        <mxCell id="_VKKLm1d0s1w-XBs0YKe-50" value="End" style="strokeWidth=2;html=1;shape=mxgraph.flowchart.start_1;whiteSpace=wrap;" parent="WIyWlLk6GJQsqaUBKTNV-1" vertex="1">
          <mxGeometry x="-469.5" y="1030" width="104" height="40" as="geometry" />
        </mxCell>
        <mxCell id="_VKKLm1d0s1w-XBs0YKe-51" value="Start" style="strokeWidth=2;html=1;shape=mxgraph.flowchart.start_1;whiteSpace=wrap;fillColor=#ffe6cc;strokeColor=#d79b00;" parent="WIyWlLk6GJQsqaUBKTNV-1" vertex="1">
          <mxGeometry x="240" y="30" width="100" height="40" as="geometry" />
        </mxCell>
        <mxCell id="_VKKLm1d0s1w-XBs0YKe-52" value="" style="endArrow=classic;html=1;rounded=0;exitX=0.5;exitY=1;exitDx=0;exitDy=0;exitPerimeter=0;fillColor=#ffe6cc;strokeColor=#d79b00;" parent="WIyWlLk6GJQsqaUBKTNV-1" source="_VKKLm1d0s1w-XBs0YKe-51" edge="1">
          <mxGeometry width="50" height="50" relative="1" as="geometry">
            <mxPoint x="280" y="180" as="sourcePoint" />
            <mxPoint x="290" y="110" as="targetPoint" />
          </mxGeometry>
        </mxCell>
        <mxCell id="_VKKLm1d0s1w-XBs0YKe-53" value="!root" style="strokeWidth=2;html=1;shape=mxgraph.flowchart.decision;whiteSpace=wrap;fillColor=#ffe6cc;strokeColor=#d79b00;" parent="WIyWlLk6GJQsqaUBKTNV-1" vertex="1">
          <mxGeometry x="240" y="110" width="100" height="40" as="geometry" />
        </mxCell>
        <mxCell id="_VKKLm1d0s1w-XBs0YKe-54" value="input:&lt;br&gt;bArr[]" style="shape=parallelogram;html=1;strokeWidth=2;perimeter=parallelogramPerimeter;whiteSpace=wrap;rounded=1;arcSize=12;size=0.23;" parent="WIyWlLk6GJQsqaUBKTNV-1" vertex="1">
          <mxGeometry x="-476" y="630" width="120" height="40" as="geometry" />
        </mxCell>
        <mxCell id="_VKKLm1d0s1w-XBs0YKe-56" value="root = newNode" style="rounded=1;whiteSpace=wrap;html=1;absoluteArcSize=1;arcSize=14;strokeWidth=2;fillColor=#ffe6cc;strokeColor=#d79b00;" parent="WIyWlLk6GJQsqaUBKTNV-1" vertex="1">
          <mxGeometry x="140" y="180" width="100" height="40" as="geometry" />
        </mxCell>
        <mxCell id="_VKKLm1d0s1w-XBs0YKe-57" value="End" style="strokeWidth=2;html=1;shape=mxgraph.flowchart.start_1;whiteSpace=wrap;fillColor=#ffe6cc;strokeColor=#d79b00;" parent="WIyWlLk6GJQsqaUBKTNV-1" vertex="1">
          <mxGeometry x="240" y="510" width="100" height="40" as="geometry" />
        </mxCell>
        <mxCell id="_VKKLm1d0s1w-XBs0YKe-58" value="" style="endArrow=classic;html=1;rounded=0;exitX=0;exitY=0.5;exitDx=0;exitDy=0;exitPerimeter=0;entryX=0.5;entryY=0;entryDx=0;entryDy=0;fillColor=#ffe6cc;strokeColor=#d79b00;" parent="WIyWlLk6GJQsqaUBKTNV-1" source="_VKKLm1d0s1w-XBs0YKe-53" target="_VKKLm1d0s1w-XBs0YKe-56" edge="1">
          <mxGeometry width="50" height="50" relative="1" as="geometry">
            <mxPoint x="170" y="100" as="sourcePoint" />
            <mxPoint x="220" y="50" as="targetPoint" />
            <Array as="points">
              <mxPoint x="190" y="130" />
            </Array>
          </mxGeometry>
        </mxCell>
        <mxCell id="_VKKLm1d0s1w-XBs0YKe-59" value="yes" style="edgeLabel;html=1;align=center;verticalAlign=middle;resizable=0;points=[];" parent="_VKKLm1d0s1w-XBs0YKe-58" vertex="1" connectable="0">
          <mxGeometry x="-0.6" y="2" relative="1" as="geometry">
            <mxPoint x="-12" y="-12" as="offset" />
          </mxGeometry>
        </mxCell>
        <mxCell id="_VKKLm1d0s1w-XBs0YKe-60" value="newNode.value &amp;lt; thisNode.value" style="strokeWidth=2;html=1;shape=mxgraph.flowchart.decision;whiteSpace=wrap;fillColor=#ffe6cc;strokeColor=#d79b00;" parent="WIyWlLk6GJQsqaUBKTNV-1" vertex="1">
          <mxGeometry x="320" y="230" width="210" height="60" as="geometry" />
        </mxCell>
        <mxCell id="_VKKLm1d0s1w-XBs0YKe-61" value="!thisNode.left" style="strokeWidth=2;html=1;shape=mxgraph.flowchart.decision;whiteSpace=wrap;fillColor=#ffe6cc;strokeColor=#d79b00;" parent="WIyWlLk6GJQsqaUBKTNV-1" vertex="1">
          <mxGeometry x="375" y="330" width="100" height="60" as="geometry" />
        </mxCell>
        <mxCell id="_VKKLm1d0s1w-XBs0YKe-62" value="thisNode.left = newNode" style="rounded=1;whiteSpace=wrap;html=1;absoluteArcSize=1;arcSize=14;strokeWidth=2;fillColor=#ffe6cc;strokeColor=#d79b00;" parent="WIyWlLk6GJQsqaUBKTNV-1" vertex="1">
          <mxGeometry x="357.5" y="430" width="135" height="40" as="geometry" />
        </mxCell>
        <mxCell id="_VKKLm1d0s1w-XBs0YKe-63" value="" style="endArrow=classic;html=1;rounded=0;exitX=1;exitY=0.5;exitDx=0;exitDy=0;exitPerimeter=0;fillColor=#ffe6cc;strokeColor=#d79b00;" parent="WIyWlLk6GJQsqaUBKTNV-1" source="_VKKLm1d0s1w-XBs0YKe-53" edge="1">
          <mxGeometry width="50" height="50" relative="1" as="geometry">
            <mxPoint x="370" y="130" as="sourcePoint" />
            <mxPoint x="425" y="170" as="targetPoint" />
            <Array as="points">
              <mxPoint x="425" y="130" />
            </Array>
          </mxGeometry>
        </mxCell>
        <mxCell id="_VKKLm1d0s1w-XBs0YKe-76" value="no" style="edgeLabel;html=1;align=center;verticalAlign=middle;resizable=0;points=[];" parent="_VKKLm1d0s1w-XBs0YKe-63" vertex="1" connectable="0">
          <mxGeometry x="-0.3379" y="-1" relative="1" as="geometry">
            <mxPoint y="-11" as="offset" />
          </mxGeometry>
        </mxCell>
        <mxCell id="_VKKLm1d0s1w-XBs0YKe-64" value="thisNode = root" style="rounded=1;whiteSpace=wrap;html=1;absoluteArcSize=1;arcSize=14;strokeWidth=2;fillColor=#ffe6cc;strokeColor=#d79b00;" parent="WIyWlLk6GJQsqaUBKTNV-1" vertex="1">
          <mxGeometry x="375" y="170" width="100" height="30" as="geometry" />
        </mxCell>
        <mxCell id="_VKKLm1d0s1w-XBs0YKe-65" value="" style="endArrow=classic;html=1;rounded=0;exitX=0.5;exitY=1;exitDx=0;exitDy=0;entryX=0.5;entryY=0;entryDx=0;entryDy=0;entryPerimeter=0;fillColor=#ffe6cc;strokeColor=#d79b00;" parent="WIyWlLk6GJQsqaUBKTNV-1" source="_VKKLm1d0s1w-XBs0YKe-64" target="_VKKLm1d0s1w-XBs0YKe-60" edge="1">
          <mxGeometry width="50" height="50" relative="1" as="geometry">
            <mxPoint x="510" y="120" as="sourcePoint" />
            <mxPoint x="560" y="70" as="targetPoint" />
          </mxGeometry>
        </mxCell>
        <mxCell id="_VKKLm1d0s1w-XBs0YKe-66" value="" style="endArrow=classic;html=1;rounded=0;exitX=0.5;exitY=1;exitDx=0;exitDy=0;exitPerimeter=0;entryX=0.5;entryY=0;entryDx=0;entryDy=0;entryPerimeter=0;fillColor=#ffe6cc;strokeColor=#d79b00;" parent="WIyWlLk6GJQsqaUBKTNV-1" source="_VKKLm1d0s1w-XBs0YKe-60" target="_VKKLm1d0s1w-XBs0YKe-61" edge="1">
          <mxGeometry width="50" height="50" relative="1" as="geometry">
            <mxPoint x="180" y="350" as="sourcePoint" />
            <mxPoint x="230" y="300" as="targetPoint" />
          </mxGeometry>
        </mxCell>
        <mxCell id="_VKKLm1d0s1w-XBs0YKe-67" value="yes" style="edgeLabel;html=1;align=center;verticalAlign=middle;resizable=0;points=[];" parent="_VKKLm1d0s1w-XBs0YKe-66" vertex="1" connectable="0">
          <mxGeometry x="-0.2133" relative="1" as="geometry">
            <mxPoint as="offset" />
          </mxGeometry>
        </mxCell>
        <mxCell id="_VKKLm1d0s1w-XBs0YKe-71" value="" style="endArrow=classic;html=1;rounded=0;exitX=0.5;exitY=1;exitDx=0;exitDy=0;exitPerimeter=0;entryX=0.5;entryY=0;entryDx=0;entryDy=0;fillColor=#ffe6cc;strokeColor=#d79b00;" parent="WIyWlLk6GJQsqaUBKTNV-1" source="_VKKLm1d0s1w-XBs0YKe-61" target="_VKKLm1d0s1w-XBs0YKe-62" edge="1">
          <mxGeometry width="50" height="50" relative="1" as="geometry">
            <mxPoint x="250" y="430" as="sourcePoint" />
            <mxPoint x="300" y="380" as="targetPoint" />
          </mxGeometry>
        </mxCell>
        <mxCell id="_VKKLm1d0s1w-XBs0YKe-72" value="yes" style="edgeLabel;html=1;align=center;verticalAlign=middle;resizable=0;points=[];" parent="_VKKLm1d0s1w-XBs0YKe-71" vertex="1" connectable="0">
          <mxGeometry x="-0.21" y="-3" relative="1" as="geometry">
            <mxPoint as="offset" />
          </mxGeometry>
        </mxCell>
        <mxCell id="_VKKLm1d0s1w-XBs0YKe-73" value="thisNode = thisNode.left" style="rounded=1;whiteSpace=wrap;html=1;absoluteArcSize=1;arcSize=14;strokeWidth=2;fillColor=#ffe6cc;strokeColor=#d79b00;" parent="WIyWlLk6GJQsqaUBKTNV-1" vertex="1">
          <mxGeometry x="216" y="345" width="134" height="30" as="geometry" />
        </mxCell>
        <mxCell id="_VKKLm1d0s1w-XBs0YKe-74" value="" style="endArrow=classic;html=1;rounded=0;exitX=0;exitY=0.5;exitDx=0;exitDy=0;exitPerimeter=0;entryX=1;entryY=0.5;entryDx=0;entryDy=0;fillColor=#ffe6cc;strokeColor=#d79b00;" parent="WIyWlLk6GJQsqaUBKTNV-1" source="_VKKLm1d0s1w-XBs0YKe-61" target="_VKKLm1d0s1w-XBs0YKe-73" edge="1">
          <mxGeometry width="50" height="50" relative="1" as="geometry">
            <mxPoint x="50" y="290" as="sourcePoint" />
            <mxPoint x="100" y="240" as="targetPoint" />
          </mxGeometry>
        </mxCell>
        <mxCell id="_VKKLm1d0s1w-XBs0YKe-75" value="no" style="edgeLabel;html=1;align=center;verticalAlign=middle;resizable=0;points=[];" parent="_VKKLm1d0s1w-XBs0YKe-74" vertex="1" connectable="0">
          <mxGeometry x="-0.3676" y="1" relative="1" as="geometry">
            <mxPoint y="-11" as="offset" />
          </mxGeometry>
        </mxCell>
        <mxCell id="_VKKLm1d0s1w-XBs0YKe-77" value="" style="endArrow=classic;html=1;rounded=0;exitX=0.5;exitY=1;exitDx=0;exitDy=0;fillColor=#ffe6cc;strokeColor=#d79b00;" parent="WIyWlLk6GJQsqaUBKTNV-1" source="_VKKLm1d0s1w-XBs0YKe-56" target="_VKKLm1d0s1w-XBs0YKe-57" edge="1">
          <mxGeometry width="50" height="50" relative="1" as="geometry">
            <mxPoint x="150" y="350" as="sourcePoint" />
            <mxPoint x="300" y="520" as="targetPoint" />
            <Array as="points">
              <mxPoint x="190" y="490" />
              <mxPoint x="290" y="490" />
            </Array>
          </mxGeometry>
        </mxCell>
        <mxCell id="_VKKLm1d0s1w-XBs0YKe-79" value="" style="endArrow=classic;html=1;rounded=0;exitX=0.5;exitY=0;exitDx=0;exitDy=0;fillColor=#ffe6cc;strokeColor=#d79b00;" parent="WIyWlLk6GJQsqaUBKTNV-1" source="_VKKLm1d0s1w-XBs0YKe-73" edge="1">
          <mxGeometry width="50" height="50" relative="1" as="geometry">
            <mxPoint x="270" y="300" as="sourcePoint" />
            <mxPoint x="425" y="210" as="targetPoint" />
            <Array as="points">
              <mxPoint x="283" y="210" />
            </Array>
          </mxGeometry>
        </mxCell>
        <mxCell id="_VKKLm1d0s1w-XBs0YKe-82" value="!thisNode.right" style="strokeWidth=2;html=1;shape=mxgraph.flowchart.decision;whiteSpace=wrap;fillColor=#ffe6cc;strokeColor=#d79b00;" parent="WIyWlLk6GJQsqaUBKTNV-1" vertex="1">
          <mxGeometry x="530" y="330" width="100" height="60" as="geometry" />
        </mxCell>
        <mxCell id="_VKKLm1d0s1w-XBs0YKe-83" value="thisNode = thisNode.right" style="rounded=1;whiteSpace=wrap;html=1;absoluteArcSize=1;arcSize=14;strokeWidth=2;fillColor=#ffe6cc;strokeColor=#d79b00;" parent="WIyWlLk6GJQsqaUBKTNV-1" vertex="1">
          <mxGeometry x="670" y="340" width="140" height="40" as="geometry" />
        </mxCell>
        <mxCell id="_VKKLm1d0s1w-XBs0YKe-84" value="" style="endArrow=classic;html=1;rounded=0;exitX=1;exitY=0.5;exitDx=0;exitDy=0;exitPerimeter=0;entryX=0.5;entryY=0;entryDx=0;entryDy=0;entryPerimeter=0;fillColor=#ffe6cc;strokeColor=#d79b00;" parent="WIyWlLk6GJQsqaUBKTNV-1" source="_VKKLm1d0s1w-XBs0YKe-60" target="_VKKLm1d0s1w-XBs0YKe-82" edge="1">
          <mxGeometry width="50" height="50" relative="1" as="geometry">
            <mxPoint x="610" y="280" as="sourcePoint" />
            <mxPoint x="660" y="230" as="targetPoint" />
            <Array as="points">
              <mxPoint x="580" y="260" />
            </Array>
          </mxGeometry>
        </mxCell>
        <mxCell id="_VKKLm1d0s1w-XBs0YKe-85" value="no" style="edgeLabel;html=1;align=center;verticalAlign=middle;resizable=0;points=[];" parent="_VKKLm1d0s1w-XBs0YKe-84" vertex="1" connectable="0">
          <mxGeometry x="-0.6693" y="1" relative="1" as="geometry">
            <mxPoint y="1" as="offset" />
          </mxGeometry>
        </mxCell>
        <mxCell id="_VKKLm1d0s1w-XBs0YKe-86" value="thisNode.right = newNode" style="rounded=1;whiteSpace=wrap;html=1;absoluteArcSize=1;arcSize=14;strokeWidth=2;fillColor=#ffe6cc;strokeColor=#d79b00;" parent="WIyWlLk6GJQsqaUBKTNV-1" vertex="1">
          <mxGeometry x="506.25" y="430" width="147.5" height="40" as="geometry" />
        </mxCell>
        <mxCell id="_VKKLm1d0s1w-XBs0YKe-87" value="" style="endArrow=classic;html=1;rounded=0;exitX=0.5;exitY=1;exitDx=0;exitDy=0;exitPerimeter=0;entryX=0.5;entryY=0;entryDx=0;entryDy=0;fillColor=#ffe6cc;strokeColor=#d79b00;" parent="WIyWlLk6GJQsqaUBKTNV-1" source="_VKKLm1d0s1w-XBs0YKe-82" target="_VKKLm1d0s1w-XBs0YKe-86" edge="1">
          <mxGeometry width="50" height="50" relative="1" as="geometry">
            <mxPoint x="510" y="570" as="sourcePoint" />
            <mxPoint x="560" y="520" as="targetPoint" />
          </mxGeometry>
        </mxCell>
        <mxCell id="_VKKLm1d0s1w-XBs0YKe-88" value="yes" style="edgeLabel;html=1;align=center;verticalAlign=middle;resizable=0;points=[];" parent="_VKKLm1d0s1w-XBs0YKe-87" vertex="1" connectable="0">
          <mxGeometry x="-0.14" y="-2" relative="1" as="geometry">
            <mxPoint as="offset" />
          </mxGeometry>
        </mxCell>
        <mxCell id="_VKKLm1d0s1w-XBs0YKe-89" value="" style="endArrow=classic;html=1;rounded=0;exitX=1;exitY=0.5;exitDx=0;exitDy=0;exitPerimeter=0;fillColor=#ffe6cc;strokeColor=#d79b00;" parent="WIyWlLk6GJQsqaUBKTNV-1" source="_VKKLm1d0s1w-XBs0YKe-82" target="_VKKLm1d0s1w-XBs0YKe-83" edge="1">
          <mxGeometry width="50" height="50" relative="1" as="geometry">
            <mxPoint x="530" y="370" as="sourcePoint" />
            <mxPoint x="580" y="320" as="targetPoint" />
            <Array as="points">
              <mxPoint x="640" y="360" />
            </Array>
          </mxGeometry>
        </mxCell>
        <mxCell id="_VKKLm1d0s1w-XBs0YKe-92" value="no" style="edgeLabel;html=1;align=center;verticalAlign=middle;resizable=0;points=[];" parent="_VKKLm1d0s1w-XBs0YKe-89" vertex="1" connectable="0">
          <mxGeometry x="-0.3697" y="-1" relative="1" as="geometry">
            <mxPoint y="1" as="offset" />
          </mxGeometry>
        </mxCell>
        <mxCell id="_VKKLm1d0s1w-XBs0YKe-90" value="" style="endArrow=classic;html=1;rounded=0;exitX=0.5;exitY=0;exitDx=0;exitDy=0;fillColor=#ffe6cc;strokeColor=#d79b00;" parent="WIyWlLk6GJQsqaUBKTNV-1" source="_VKKLm1d0s1w-XBs0YKe-83" edge="1">
          <mxGeometry width="50" height="50" relative="1" as="geometry">
            <mxPoint x="510" y="190" as="sourcePoint" />
            <mxPoint x="430" y="210" as="targetPoint" />
            <Array as="points">
              <mxPoint x="740" y="210" />
            </Array>
          </mxGeometry>
        </mxCell>
        <mxCell id="_VKKLm1d0s1w-XBs0YKe-93" value="" style="endArrow=classic;html=1;rounded=0;exitX=0.5;exitY=1;exitDx=0;exitDy=0;fillColor=#ffe6cc;strokeColor=#d79b00;" parent="WIyWlLk6GJQsqaUBKTNV-1" source="_VKKLm1d0s1w-XBs0YKe-62" edge="1">
          <mxGeometry width="50" height="50" relative="1" as="geometry">
            <mxPoint x="490" y="600" as="sourcePoint" />
            <mxPoint x="290" y="490" as="targetPoint" />
            <Array as="points">
              <mxPoint x="425" y="490" />
            </Array>
          </mxGeometry>
        </mxCell>
        <mxCell id="_VKKLm1d0s1w-XBs0YKe-94" value="" style="endArrow=classic;html=1;rounded=0;exitX=0.5;exitY=1;exitDx=0;exitDy=0;fillColor=#ffe6cc;strokeColor=#d79b00;" parent="WIyWlLk6GJQsqaUBKTNV-1" source="_VKKLm1d0s1w-XBs0YKe-86" edge="1">
          <mxGeometry width="50" height="50" relative="1" as="geometry">
            <mxPoint x="520" y="610" as="sourcePoint" />
            <mxPoint x="420" y="490" as="targetPoint" />
            <Array as="points">
              <mxPoint x="580" y="490" />
            </Array>
          </mxGeometry>
        </mxCell>
        <mxCell id="_VKKLm1d0s1w-XBs0YKe-96" value="Start" style="strokeWidth=2;html=1;shape=mxgraph.flowchart.start_1;whiteSpace=wrap;fillColor=#d5e8d4;strokeColor=#82b366;" parent="WIyWlLk6GJQsqaUBKTNV-1" vertex="1">
          <mxGeometry x="98.63" y="660" width="100" height="40" as="geometry" />
        </mxCell>
        <mxCell id="_VKKLm1d0s1w-XBs0YKe-97" value="" style="endArrow=classic;html=1;rounded=0;exitX=0.5;exitY=1;exitDx=0;exitDy=0;exitPerimeter=0;entryX=0.5;entryY=0;entryDx=0;entryDy=0;fillColor=#d5e8d4;strokeColor=#82b366;" parent="WIyWlLk6GJQsqaUBKTNV-1" source="_VKKLm1d0s1w-XBs0YKe-96" target="_VKKLm1d0s1w-XBs0YKe-99" edge="1">
          <mxGeometry width="50" height="50" relative="1" as="geometry">
            <mxPoint x="102.13" y="820" as="sourcePoint" />
            <mxPoint x="149.13" y="730" as="targetPoint" />
          </mxGeometry>
        </mxCell>
        <mxCell id="_VKKLm1d0s1w-XBs0YKe-98" value="!thisNode" style="strokeWidth=2;html=1;shape=mxgraph.flowchart.decision;whiteSpace=wrap;fillColor=#d5e8d4;strokeColor=#82b366;" parent="WIyWlLk6GJQsqaUBKTNV-1" vertex="1">
          <mxGeometry x="98.63" y="790" width="100" height="50" as="geometry" />
        </mxCell>
        <mxCell id="_VKKLm1d0s1w-XBs0YKe-99" value="thisNode = root" style="rounded=1;whiteSpace=wrap;html=1;absoluteArcSize=1;arcSize=14;strokeWidth=2;fillColor=#d5e8d4;strokeColor=#82b366;" parent="WIyWlLk6GJQsqaUBKTNV-1" vertex="1">
          <mxGeometry x="98.63" y="730" width="100" height="30" as="geometry" />
        </mxCell>
        <mxCell id="_VKKLm1d0s1w-XBs0YKe-101" value="thisNode = thisNode.left&lt;br&gt;console.log(thisNode.value)" style="shape=process;whiteSpace=wrap;html=1;backgroundOutline=1;fillColor=#d5e8d4;strokeColor=#82b366;" parent="WIyWlLk6GJQsqaUBKTNV-1" vertex="1">
          <mxGeometry x="51" y="880" width="195.25" height="60" as="geometry" />
        </mxCell>
        <mxCell id="_VKKLm1d0s1w-XBs0YKe-102" value="thisNode = thisNode.right&lt;br&gt;console.log(thisNode.value)" style="shape=process;whiteSpace=wrap;html=1;backgroundOutline=1;fillColor=#d5e8d4;strokeColor=#82b366;" parent="WIyWlLk6GJQsqaUBKTNV-1" vertex="1">
          <mxGeometry x="51" y="970" width="195.25" height="60" as="geometry" />
        </mxCell>
        <mxCell id="_VKKLm1d0s1w-XBs0YKe-103" value="" style="endArrow=classic;html=1;rounded=0;exitX=0.5;exitY=1;exitDx=0;exitDy=0;entryX=0.5;entryY=0;entryDx=0;entryDy=0;entryPerimeter=0;fillColor=#d5e8d4;strokeColor=#82b366;" parent="WIyWlLk6GJQsqaUBKTNV-1" source="_VKKLm1d0s1w-XBs0YKe-99" target="_VKKLm1d0s1w-XBs0YKe-98" edge="1">
          <mxGeometry width="50" height="50" relative="1" as="geometry">
            <mxPoint x="2.1300000000000026" y="860" as="sourcePoint" />
            <mxPoint x="52.129999999999995" y="810" as="targetPoint" />
          </mxGeometry>
        </mxCell>
        <mxCell id="_VKKLm1d0s1w-XBs0YKe-105" value="" style="endArrow=classic;html=1;rounded=0;exitX=0.5;exitY=1;exitDx=0;exitDy=0;exitPerimeter=0;entryX=0.5;entryY=0;entryDx=0;entryDy=0;fillColor=#d5e8d4;strokeColor=#82b366;" parent="WIyWlLk6GJQsqaUBKTNV-1" source="_VKKLm1d0s1w-XBs0YKe-98" target="_VKKLm1d0s1w-XBs0YKe-101" edge="1">
          <mxGeometry width="50" height="50" relative="1" as="geometry">
            <mxPoint x="-17.869999999999997" y="860" as="sourcePoint" />
            <mxPoint x="32.129999999999995" y="810" as="targetPoint" />
          </mxGeometry>
        </mxCell>
        <mxCell id="_VKKLm1d0s1w-XBs0YKe-106" value="no" style="edgeLabel;html=1;align=center;verticalAlign=middle;resizable=0;points=[];" parent="_VKKLm1d0s1w-XBs0YKe-105" vertex="1" connectable="0">
          <mxGeometry x="-0.3697" y="-1" relative="1" as="geometry">
            <mxPoint x="1" y="7" as="offset" />
          </mxGeometry>
        </mxCell>
        <mxCell id="_VKKLm1d0s1w-XBs0YKe-107" value="" style="endArrow=classic;html=1;rounded=0;exitX=0.5;exitY=1;exitDx=0;exitDy=0;entryX=0.5;entryY=0;entryDx=0;entryDy=0;fillColor=#d5e8d4;strokeColor=#82b366;" parent="WIyWlLk6GJQsqaUBKTNV-1" source="_VKKLm1d0s1w-XBs0YKe-101" target="_VKKLm1d0s1w-XBs0YKe-102" edge="1">
          <mxGeometry width="50" height="50" relative="1" as="geometry">
            <mxPoint x="-37.87" y="950" as="sourcePoint" />
            <mxPoint x="12.130000000000003" y="900" as="targetPoint" />
          </mxGeometry>
        </mxCell>
        <mxCell id="_VKKLm1d0s1w-XBs0YKe-108" value="End" style="strokeWidth=2;html=1;shape=mxgraph.flowchart.start_1;whiteSpace=wrap;fillColor=#d5e8d4;strokeColor=#82b366;" parent="WIyWlLk6GJQsqaUBKTNV-1" vertex="1">
          <mxGeometry x="98.63" y="1080" width="100" height="40" as="geometry" />
        </mxCell>
        <mxCell id="_VKKLm1d0s1w-XBs0YKe-109" value="" style="endArrow=classic;html=1;rounded=0;exitX=0.5;exitY=1;exitDx=0;exitDy=0;fillColor=#d5e8d4;strokeColor=#82b366;" parent="WIyWlLk6GJQsqaUBKTNV-1" source="_VKKLm1d0s1w-XBs0YKe-102" target="_VKKLm1d0s1w-XBs0YKe-108" edge="1">
          <mxGeometry width="50" height="50" relative="1" as="geometry">
            <mxPoint x="-97.87" y="1080" as="sourcePoint" />
            <mxPoint x="-47.87" y="1030" as="targetPoint" />
          </mxGeometry>
        </mxCell>
        <mxCell id="_VKKLm1d0s1w-XBs0YKe-110" value="yes" style="endArrow=classic;html=1;rounded=0;exitX=1;exitY=0.5;exitDx=0;exitDy=0;exitPerimeter=0;fillColor=#d5e8d4;strokeColor=#82b366;" parent="WIyWlLk6GJQsqaUBKTNV-1" source="_VKKLm1d0s1w-XBs0YKe-98" edge="1">
          <mxGeometry width="50" height="50" relative="1" as="geometry">
            <mxPoint x="-77.87" y="950" as="sourcePoint" />
            <mxPoint x="149.13" y="1060" as="targetPoint" />
            <Array as="points">
              <mxPoint x="292.13" y="815" />
              <mxPoint x="292.13" y="1060" />
            </Array>
          </mxGeometry>
        </mxCell>
        <mxCell id="_VKKLm1d0s1w-XBs0YKe-111" value="" style="endArrow=classic;html=1;rounded=0;exitX=0.5;exitY=1;exitDx=0;exitDy=0;" parent="WIyWlLk6GJQsqaUBKTNV-1" source="_VKKLm1d0s1w-XBs0YKe-54" target="_VKKLm1d0s1w-XBs0YKe-38" edge="1">
          <mxGeometry width="50" height="50" relative="1" as="geometry">
            <mxPoint x="-540" y="650" as="sourcePoint" />
            <mxPoint x="-490" y="600" as="targetPoint" />
          </mxGeometry>
        </mxCell>
        <mxCell id="_VKKLm1d0s1w-XBs0YKe-112" value="Start" style="strokeWidth=2;html=1;shape=mxgraph.flowchart.start_1;whiteSpace=wrap;fillColor=#dae8fc;strokeColor=#6c8ebf;" parent="WIyWlLk6GJQsqaUBKTNV-1" vertex="1">
          <mxGeometry x="516.25" y="630" width="100" height="40" as="geometry" />
        </mxCell>
        <mxCell id="_VKKLm1d0s1w-XBs0YKe-114" value="!root" style="strokeWidth=2;html=1;shape=mxgraph.flowchart.decision;whiteSpace=wrap;fillColor=#dae8fc;strokeColor=#6c8ebf;" parent="WIyWlLk6GJQsqaUBKTNV-1" vertex="1">
          <mxGeometry x="516" y="700" width="100" height="50" as="geometry" />
        </mxCell>
        <mxCell id="_VKKLm1d0s1w-XBs0YKe-115" value="queue.push(root)" style="rounded=1;whiteSpace=wrap;html=1;absoluteArcSize=1;arcSize=14;strokeWidth=2;fillColor=#dae8fc;strokeColor=#6c8ebf;" parent="WIyWlLk6GJQsqaUBKTNV-1" vertex="1">
          <mxGeometry x="516" y="790" width="100" height="40" as="geometry" />
        </mxCell>
        <mxCell id="_VKKLm1d0s1w-XBs0YKe-116" value="queue.length &amp;gt; 0" style="shape=hexagon;perimeter=hexagonPerimeter2;whiteSpace=wrap;html=1;fixedSize=1;fillColor=#dae8fc;strokeColor=#6c8ebf;" parent="WIyWlLk6GJQsqaUBKTNV-1" vertex="1">
          <mxGeometry x="505.99" y="850" width="120" height="40" as="geometry" />
        </mxCell>
        <mxCell id="_VKKLm1d0s1w-XBs0YKe-117" value="thisNode = queue.shift()&lt;br&gt;console.log(thisNode)" style="rounded=1;whiteSpace=wrap;html=1;absoluteArcSize=1;arcSize=14;strokeWidth=2;fillColor=#dae8fc;strokeColor=#6c8ebf;" parent="WIyWlLk6GJQsqaUBKTNV-1" vertex="1">
          <mxGeometry x="496.62" y="920" width="138.75" height="50" as="geometry" />
        </mxCell>
        <mxCell id="_VKKLm1d0s1w-XBs0YKe-119" value="queue.push(thisNode.left)&lt;br&gt;queue.push(thisNode.right)" style="rounded=1;whiteSpace=wrap;html=1;absoluteArcSize=1;arcSize=14;strokeWidth=2;fillColor=#dae8fc;strokeColor=#6c8ebf;" parent="WIyWlLk6GJQsqaUBKTNV-1" vertex="1">
          <mxGeometry x="489.3" y="1000" width="153.38" height="50" as="geometry" />
        </mxCell>
        <mxCell id="_VKKLm1d0s1w-XBs0YKe-121" value="End" style="strokeWidth=2;html=1;shape=mxgraph.flowchart.start_1;whiteSpace=wrap;fillColor=#dae8fc;strokeColor=#6c8ebf;" parent="WIyWlLk6GJQsqaUBKTNV-1" vertex="1">
          <mxGeometry x="516.25" y="1110" width="100" height="40" as="geometry" />
        </mxCell>
        <mxCell id="_VKKLm1d0s1w-XBs0YKe-122" value="" style="endArrow=classic;html=1;rounded=0;exitX=0.5;exitY=1;exitDx=0;exitDy=0;exitPerimeter=0;entryX=0.5;entryY=0;entryDx=0;entryDy=0;entryPerimeter=0;fillColor=#dae8fc;strokeColor=#6c8ebf;" parent="WIyWlLk6GJQsqaUBKTNV-1" source="_VKKLm1d0s1w-XBs0YKe-112" target="_VKKLm1d0s1w-XBs0YKe-114" edge="1">
          <mxGeometry width="50" height="50" relative="1" as="geometry">
            <mxPoint x="440" y="670" as="sourcePoint" />
            <mxPoint x="490" y="620" as="targetPoint" />
          </mxGeometry>
        </mxCell>
        <mxCell id="_VKKLm1d0s1w-XBs0YKe-123" value="" style="endArrow=classic;html=1;rounded=0;exitX=0.5;exitY=1;exitDx=0;exitDy=0;exitPerimeter=0;entryX=0.5;entryY=0;entryDx=0;entryDy=0;fillColor=#dae8fc;strokeColor=#6c8ebf;" parent="WIyWlLk6GJQsqaUBKTNV-1" source="_VKKLm1d0s1w-XBs0YKe-114" target="_VKKLm1d0s1w-XBs0YKe-115" edge="1">
          <mxGeometry width="50" height="50" relative="1" as="geometry">
            <mxPoint x="420" y="730" as="sourcePoint" />
            <mxPoint x="470" y="680" as="targetPoint" />
          </mxGeometry>
        </mxCell>
        <mxCell id="_VKKLm1d0s1w-XBs0YKe-124" value="no" style="edgeLabel;html=1;align=center;verticalAlign=middle;resizable=0;points=[];" parent="_VKKLm1d0s1w-XBs0YKe-123" vertex="1" connectable="0">
          <mxGeometry x="-0.2833" relative="1" as="geometry">
            <mxPoint as="offset" />
          </mxGeometry>
        </mxCell>
        <mxCell id="_VKKLm1d0s1w-XBs0YKe-125" value="" style="endArrow=classic;html=1;rounded=0;exitX=0;exitY=0.5;exitDx=0;exitDy=0;exitPerimeter=0;entryX=0.5;entryY=0;entryDx=0;entryDy=0;entryPerimeter=0;fillColor=#dae8fc;strokeColor=#6c8ebf;" parent="WIyWlLk6GJQsqaUBKTNV-1" source="_VKKLm1d0s1w-XBs0YKe-114" target="_VKKLm1d0s1w-XBs0YKe-121" edge="1">
          <mxGeometry width="50" height="50" relative="1" as="geometry">
            <mxPoint x="526" y="707.5" as="sourcePoint" />
            <mxPoint x="400" y="742.5" as="targetPoint" />
            <Array as="points">
              <mxPoint x="450" y="725" />
              <mxPoint x="450" y="1080" />
              <mxPoint x="566" y="1080" />
            </Array>
          </mxGeometry>
        </mxCell>
        <mxCell id="_VKKLm1d0s1w-XBs0YKe-127" value="yes" style="edgeLabel;html=1;align=center;verticalAlign=middle;resizable=0;points=[];" parent="_VKKLm1d0s1w-XBs0YKe-125" vertex="1" connectable="0">
          <mxGeometry x="-0.8925" y="-3" relative="1" as="geometry">
            <mxPoint as="offset" />
          </mxGeometry>
        </mxCell>
        <mxCell id="_VKKLm1d0s1w-XBs0YKe-126" value="" style="endArrow=classic;html=1;rounded=0;exitX=0.5;exitY=1;exitDx=0;exitDy=0;entryX=0.5;entryY=0;entryDx=0;entryDy=0;fillColor=#dae8fc;strokeColor=#6c8ebf;" parent="WIyWlLk6GJQsqaUBKTNV-1" source="_VKKLm1d0s1w-XBs0YKe-115" target="_VKKLm1d0s1w-XBs0YKe-116" edge="1">
          <mxGeometry width="50" height="50" relative="1" as="geometry">
            <mxPoint x="370" y="810" as="sourcePoint" />
            <mxPoint x="420" y="760" as="targetPoint" />
          </mxGeometry>
        </mxCell>
        <mxCell id="_VKKLm1d0s1w-XBs0YKe-128" value="" style="endArrow=classic;html=1;rounded=0;exitX=0.5;exitY=1;exitDx=0;exitDy=0;entryX=0.5;entryY=0;entryDx=0;entryDy=0;fillColor=#dae8fc;strokeColor=#6c8ebf;" parent="WIyWlLk6GJQsqaUBKTNV-1" source="_VKKLm1d0s1w-XBs0YKe-116" target="_VKKLm1d0s1w-XBs0YKe-117" edge="1">
          <mxGeometry width="50" height="50" relative="1" as="geometry">
            <mxPoint x="400" y="870" as="sourcePoint" />
            <mxPoint x="450" y="820" as="targetPoint" />
          </mxGeometry>
        </mxCell>
        <mxCell id="_VKKLm1d0s1w-XBs0YKe-129" value="" style="endArrow=classic;html=1;rounded=0;exitX=0.5;exitY=1;exitDx=0;exitDy=0;entryX=0.5;entryY=0;entryDx=0;entryDy=0;fillColor=#dae8fc;strokeColor=#6c8ebf;" parent="WIyWlLk6GJQsqaUBKTNV-1" source="_VKKLm1d0s1w-XBs0YKe-117" target="_VKKLm1d0s1w-XBs0YKe-119" edge="1">
          <mxGeometry width="50" height="50" relative="1" as="geometry">
            <mxPoint x="570" y="980" as="sourcePoint" />
            <mxPoint x="410" y="770" as="targetPoint" />
          </mxGeometry>
        </mxCell>
        <mxCell id="_VKKLm1d0s1w-XBs0YKe-130" value="" style="endArrow=classic;html=1;rounded=0;exitX=0;exitY=0.5;exitDx=0;exitDy=0;entryX=0;entryY=0.5;entryDx=0;entryDy=0;fillColor=#dae8fc;strokeColor=#6c8ebf;" parent="WIyWlLk6GJQsqaUBKTNV-1" source="_VKKLm1d0s1w-XBs0YKe-119" target="_VKKLm1d0s1w-XBs0YKe-116" edge="1">
          <mxGeometry width="50" height="50" relative="1" as="geometry">
            <mxPoint x="390" y="930" as="sourcePoint" />
            <mxPoint x="440" y="880" as="targetPoint" />
            <Array as="points">
              <mxPoint x="470" y="1025" />
              <mxPoint x="470" y="870" />
            </Array>
          </mxGeometry>
        </mxCell>
        <mxCell id="_VKKLm1d0s1w-XBs0YKe-131" value="" style="endArrow=classic;html=1;rounded=0;exitX=1;exitY=0.5;exitDx=0;exitDy=0;fillColor=#dae8fc;strokeColor=#6c8ebf;" parent="WIyWlLk6GJQsqaUBKTNV-1" source="_VKKLm1d0s1w-XBs0YKe-116" edge="1">
          <mxGeometry width="50" height="50" relative="1" as="geometry">
            <mxPoint x="360" y="870" as="sourcePoint" />
            <mxPoint x="566" y="1080" as="targetPoint" />
            <Array as="points">
              <mxPoint x="670" y="870" />
              <mxPoint x="670" y="1080" />
            </Array>
          </mxGeometry>
        </mxCell>
      </root>
    </mxGraphModel>
  </diagram>
</mxfile>
